<svg xmlns="http://www.w3.org/2000/svg" width="126" height="26" viewBox="0 0 126 26">
    <title>
        merQbiz logo final
    </title>
    <path d="M14.9 5l-6.44 9.65L2.02 5H0v17.68h1.94V8.38l6.44 9.45h.11l6.44-9.47v14.32h1.99V5zM21 5h12.78v1.82H22.99v6.03h9.65v1.82h-9.65v6.19h10.92v1.82H21zm28.97 5.38v-.05c0-2.17-1.67-3.49-4.52-3.49h-5.46v7.18h5.43c2.66 0 4.55-1.37 4.55-3.64zM45.6 5c2.17 0 3.92.66 5.03 1.77.86.86 1.36 2.09 1.36 3.48v.05c0 2.93-2.02 4.65-4.8 5.16l5.43 7.22h-2.45l-5.12-6.87h-5.06v6.87H38V5z"/>
    <path d="M68.65 16.37l2.72-3.1 4.24 3.86c.76-1.31 1.17-2.86 1.17-4.58v-.07c0-4.69-3.41-8.55-8.2-8.55-4.79 0-8.13 3.79-8.13 8.48v.07c0 4.68 3.41 8.54 8.2 8.54 1.59 0 2.96-.37 4.17-1.06zm10.17 8.89l-2.9-2.58c-2.03 1.45-4.55 2.27-7.34 2.27-7.41 0-12.58-5.61-12.58-12.4v-.07C56 5.69 61.24 0 68.65 0s12.58 5.62 12.58 12.41v.07c0 2.75-.9 5.31-2.45 7.41l2.76 2.34z" fill="#2a87e1"/>
    <path d="M88.97 14.65v6.23h5.93c2.68 0 4.35-1.18 4.35-3.15v-.05c0-1.92-1.62-3.03-4.7-3.03zm9.29-4.98c0-1.74-1.39-2.88-3.91-2.88h-5.38v6.09h5.23c2.4 0 4.06-1.09 4.06-3.16zM87 5h7.53c2.02 0 3.61.58 4.62 1.57.73.75 1.13 1.69 1.13 2.82v.05c0 2.3-1.41 3.49-2.8 4.1 2.1.63 3.79 1.84 3.79 4.26v.05c0 3.03-2.55 4.83-6.42 4.83H87zm18 17.68h1.99V5H105zm6-1.34l11.44-14.55h-11.06V5h13.79v1.34L113.7 20.88h11.47v1.8H111z"/>
</svg>
