<?xml version="1.0" encoding="UTF-8" standalone="no"?>
<!-- Created with Inkscape (http://www.inkscape.org/) -->

<svg
   xmlns:dc="http://purl.org/dc/elements/1.1/"
   xmlns:cc="http://creativecommons.org/ns#"
   xmlns:rdf="http://www.w3.org/1999/02/22-rdf-syntax-ns#"
   xmlns:svg="http://www.w3.org/2000/svg"
   xmlns="http://www.w3.org/2000/svg"
   xmlns:sodipodi="http://sodipodi.sourceforge.net/DTD/sodipodi-0.dtd"
   xmlns:inkscape="http://www.inkscape.org/namespaces/inkscape"
   width="43.656246mm"
   height="8.4666672mm"
   viewBox="0 0 43.656246 8.4666672"
   version="1.1"
   id="svg95"
   inkscape:version="0.92.2 (5c3e80d, 2017-08-06)"
   sodipodi:docname="drawing.svg">
  <defs
     id="defs89" />
  <sodipodi:namedview
     id="base"
     pagecolor="#ffffff"
     bordercolor="#666666"
     borderopacity="1.0"
     inkscape:pageopacity="0.0"
     inkscape:pageshadow="2"
     inkscape:zoom="5.6"
     inkscape:cx="68.341392"
     inkscape:cy="-6.1796525"
     inkscape:document-units="mm"
     inkscape:current-layer="layer1"
     showgrid="false"
     inkscape:window-width="1366"
     inkscape:window-height="706"
     inkscape:window-x="-8"
     inkscape:window-y="-8"
     inkscape:window-maximized="1"
     showguides="false" />
  <metadata
     id="metadata92">
    <rdf:RDF>
      <cc:Work
         rdf:about="">
        <dc:format>image/svg+xml</dc:format>
        <dc:type
           rdf:resource="http://purl.org/dc/dcmitype/StillImage" />
        <dc:title></dc:title>
      </cc:Work>
    </rdf:RDF>
  </metadata>
  <g
     inkscape:label="Layer 1"
     inkscape:groupmode="layer"
     id="layer1"
     transform="translate(-28.820686,-27.427385)">
    <g
       id="g54"
       transform="matrix(0.04472349,0,0,0.04406739,28.82069,27.427416)"
       style="fill:none;fill-rule:evenodd;stroke:none;stroke-width:1">
      <g
         id="Logo-structure-Copy-4"
         transform="translate(-56,-20)">
        <g
           id="Page-1"
           transform="translate(56,19)">
          <g
             id="white-logo-svg">
            <polygon
               id="Fill-1"
               points="64.3369,108.2889 15.3629,34.9279 -0.0001,34.9279 -0.0001,169.3629 14.7869,169.3629 14.7869,60.6619 63.7609,132.4869 64.5289,132.4869 113.5029,60.4689 113.5029,169.3629 128.6739,169.3629 128.6739,34.9279 113.3109,34.9279 "
               style="fill:#ffffff" />
            <g
               id="Group-12"
               transform="translate(163,0.129)">
              <path
                 d="m 183.6263,103.3609 c 20.166,0 34.571,-10.37 34.571,-27.656 v -0.386 c 0,-16.515 -12.676,-26.501 -34.377,-26.501 h -41.484 v 54.543 z m -56.461,-68.562 h 57.805 c 16.518,0 29.768,4.991 38.22,13.443 6.529,6.529 10.37,15.941 10.37,26.503 v 0.384 c 0,22.276 -15.363,35.337 -36.489,39.178 l 41.29,54.927 h -18.628 l -38.987,-52.236 h -38.41 v 52.236 h -15.171 z"
                 id="Fill-3"
                 inkscape:connector-curvature="0"
                 style="fill:#ffffff" />
              <path
                 d="m 540.6487,108.1617 h -42.444 v 47.436 h 45.131 c 20.358,0 33.034,-9.026 33.034,-24.007 v -0.383 c 0,-14.596 -12.292,-23.046 -35.721,-23.046 z m 28.229,-37.833 c 0,-13.253 -10.562,-21.897 -29.767,-21.897 h -40.906 v 46.285 h 39.756 c 18.245,0 30.917,-8.257 30.917,-24.005 z m -85.652,-35.53 h 57.229 c 15.365,0 27.464,4.417 35.147,11.906 5.569,5.762 8.642,12.867 8.642,21.509 v 0.384 c 0,17.478 -10.755,26.503 -21.317,31.114 15.94,4.801 28.808,14.019 28.808,32.457 v 0.382 c 0,23.047 -19.398,36.683 -48.781,36.683 h -59.728 z"
                 id="Fill-5"
                 inkscape:connector-curvature="0"
                 style="fill:#ffffff" />
              <polygon
                 id="Fill-7"
                 points="636.664,34.799 621.493,34.799 621.493,169.234 636.664,169.234 "
                 style="fill:#ffffff" />
              <polygon
                 id="Fill-9"
                 points="773.4034,34.7987 773.4034,44.9767 686.2124,155.5967 773.4034,155.5967 773.4034,169.2337 665.6624,169.2337 665.6624,159.0537 752.6614,48.4317 668.5434,48.4317 668.5434,34.7987 "
                 style="fill:#ffffff" />
              <path
                 d="m 388.4319,152.6333 -31.715,-27.26 20.707,-23.59 32.24,29.357 c 5.765,-9.961 8.912,-21.754 8.912,-34.861 v -0.524 c 0,-35.646 -25.95,-65.003 -62.384,-65.003 -36.431,0 -61.859,28.833 -61.859,64.479 v 0.524 c 0,35.648 25.95,65.003 62.384,65.003 12.058,0 22.541,-2.882 31.715,-8.125 z m 45.607,40.367 -22.015,-19.659 c -15.467,11.007 -34.6,17.3 -55.832,17.3 -56.353,0 -95.672,-42.726 -95.672,-94.362 v -0.524 c 0,-51.636 39.843,-94.885 96.197,-94.885 56.354,0 95.672,42.725 95.672,94.361 v 0.524 c 0,20.969 -6.816,40.367 -18.611,56.354 l 20.969,17.825 z"
                 id="Fill-10"
                 inkscape:connector-curvature="0"
                 style="fill:#2a87e1" />
              <path
                 d="m 798.58884,40.394276 c 2.03751,0 3.83766,-0.198684 3.83766,-2.597557 0,-2.038842 -1.9975,-2.237526 -3.59764,-2.237526 h -3.27628 v 4.835083 z m -3.03626,9.392807 h -2.7189 V 33.240327 h 6.2752 c 3.99768,0 6.03519,1.398787 6.03519,4.756409 0,2.997591 -1.8775,4.236364 -4.31504,4.516389 l 4.63373,7.273958 h -3.07626 l -4.27637,-7.073941 h -2.55755 z m 2.95625,-20.90313 c -6.51389,0 -11.50899,5.075103 -11.50899,12.350395 0,6.793918 4.39371,12.350395 11.50899,12.350395 6.39522,0 11.43165,-5.036433 11.43165,-12.350395 0,-7.275292 -5.03643,-12.350395 -11.43165,-12.350395 z m 0,27.298347 c -8.59274,0 -14.70793,-6.43522 -14.70793,-14.947952 0,-8.95277 6.79525,-14.949286 14.70793,-14.949286 7.83267,0 14.62793,5.996516 14.62793,14.949286 0,8.954103 -6.79526,14.947952 -14.62793,14.947952 z"
                 id="Fill-11"
                 inkscape:connector-curvature="0"
                 style="fill:#ffffff" />
              <polygon
                 id="Fill-2"
                 points="97.4122,48.6259 15.4042,48.6259 15.4042,94.5269 88.7692,94.5269 88.7692,108.3539 15.4042,108.3539 15.4042,155.4069 98.3732,155.4069 98.3732,169.2339 0.2332,169.2339 0.2332,34.7989 97.4122,34.7989 "
                 style="fill:#ffffff" />
            </g>
          </g>
        </g>
      </g>
    </g>
  </g>
</svg>
