<?xml version="1.0" encoding="UTF-8"?>
<svg width="595px" height="136px" viewBox="0 0 595 136" version="1.1" xmlns="http://www.w3.org/2000/svg" xmlns:xlink="http://www.w3.org/1999/xlink">
    <!-- Generator: Sketch 50 (54983) - http://www.bohemiancoding.com/sketch -->
    <title>CH Robinson logo</title>
    <desc>Created with Sketch.</desc>
    <defs>
        <polygon id="path-1" points="0 132.951724 593.030345 132.951724 593.030345 0 0 0"></polygon>
    </defs>
    <g id="CH-Robinson-logo" stroke="none" stroke-width="1" fill="none" fill-rule="evenodd">
        <g>
            <path d="M178.499179,83.4226931 C176.361283,86.9024172 172.774869,89.2331759 168.732972,89.7830379 L159.130903,89.7830379 C157.44849,89.7461069 155.80711,89.2660034 154.370903,88.3878655 C152.196076,86.8777966 150.283869,85.0189345 148.708145,82.8892448 C147.862834,81.6007621 147.431972,80.0824862 147.47711,78.5436931 L147.47711,54.4113138 C147.419662,52.8684172 147.850524,51.3501414 148.708145,50.0616586 C150.292076,47.9565897 152.171455,46.0895207 154.288834,44.5261069 C155.753766,43.7136241 157.382834,43.2499345 159.048834,43.1678655 L168.650903,43.1678655 C172.688697,43.7341414 176.266903,46.0649 178.41711,49.5282103 C179.01211,50.3776241 179.545559,51.2721759 180.017455,52.1954517 L172.179869,54.4523483 C171.170421,53.1474517 170.013248,51.9656586 168.732972,50.9233828 C168.626283,50.8864517 168.511386,50.8864517 168.404697,50.9233828 L159.37711,50.9233828 L159.048834,50.9233828 C157.690593,51.8097276 156.52111,52.9504862 155.601938,54.2882103 C155.565007,54.5631414 155.565007,54.8380724 155.601938,55.1130034 L155.601938,78.4575207 C155.601938,79.3602793 157.981938,81.370969 159.130903,81.9864862 L159.664352,81.9864862 L168.445731,81.9864862 C168.568834,82.0152103 168.696041,82.0152103 168.815041,81.9864862 C170.1938,81.0221759 171.363283,79.7952448 172.261938,78.3795552 L180.099524,80.4312793 C179.685076,81.4817621 179.147524,82.4871069 178.499179,83.4226931" id="Fill-1" fill="#101820"></path>
            <mask id="mask-2" fill="white">
                <use xlink:href="#path-1"></use>
            </mask>
            <g id="Clip-4"></g>
            <polygon id="Fill-3" fill="#101820" mask="url(#mask-2)" points="187.158276 89.3731034 196.596207 89.3731034 196.596207 79.73 187.158276 79.73"></polygon>
            <polygon id="Fill-5" fill="#101820" mask="url(#mask-2)" points="229.423383 89.3735138 229.423383 70.5797207 212.722348 70.5797207 212.722348 89.4966172 204.515452 89.4966172 204.515452 43.4969621 212.722348 43.4969621 212.722348 62.783169 229.423383 62.783169 229.423383 43.4969621 237.630279 43.4969621 237.630279 89.3735138"></polygon>
            <polygon id="Fill-6" fill="#101820" mask="url(#mask-2)" points="245.550345 89.3731034 254.988276 89.3731034 254.988276 79.73 245.550345 79.73"></polygon>
            <path d="M305.00849,54.1655172 C305.037214,53.989069 305.037214,53.8085172 305.00849,53.632069 C304.55711,52.7703448 303.326076,51.252069 302.587455,51.17 L288.594697,51.17 L288.594697,63.4803448 L302.095041,63.4803448 C302.792628,63.4803448 304.310903,62.0441379 304.926421,60.9362069 C304.951041,60.8418276 304.951041,60.7433448 304.926421,60.6489655 L305.00849,54.1655172 Z M311.69711,65.532069 C310.478386,67.0421379 309.103731,68.4167931 307.593662,69.6355172 C306.986352,70.1033103 306.309283,70.4644138 305.582972,70.7024138 L314.733662,89.4141379 L305.952283,89.4141379 L297.41711,71.317931 L288.594697,71.317931 L288.594697,89.4141379 L280.3878,89.4141379 L280.3878,43.4965517 L301.930903,43.4965517 C303.875938,43.5088621 305.775834,44.0956552 307.38849,45.1789655 C308.890352,46.4017931 310.265007,47.7764483 311.491938,49.2824138 C312.501386,50.7145172 313.059455,52.4133448 313.092283,54.1655172 L313.092283,60.9362069 C313.075869,62.5693793 312.591662,64.1656207 311.69711,65.532069 Z" id="Fill-7" fill="#101820" mask="url(#mask-2)"></path>
            <path d="M330.204483,78.4575207 L330.204483,78.7447621 C331.111345,80.0660724 332.268517,81.1945207 333.610345,82.0685552 C333.729345,82.1054862 333.860655,82.1054862 333.979655,82.0685552 L345.017931,82.0685552 C345.153345,82.0972793 345.292862,82.0972793 345.428276,82.0685552 C346.75369,81.1904172 347.898552,80.061969 348.793103,78.7447621 C348.817724,78.6503828 348.817724,78.5519 348.793103,78.4575207 L348.793103,54.6985552 L348.793103,54.3292448 C347.902655,52.9997276 346.757793,51.858969 345.428276,50.9644172 C345.292862,50.9315897 345.153345,50.9315897 345.017931,50.9644172 L334.02069,50.9644172 L333.651379,50.9644172 C332.305448,51.8548655 331.148276,52.9956241 330.245517,54.3292448 C330.233207,54.4523483 330.233207,54.5754517 330.245517,54.6985552 L330.204483,78.4575207 Z M355.727931,82.8892448 C354.13169,84.9820034 352.256414,86.8490724 350.147241,88.4289 C348.706931,89.298831 347.069655,89.7789345 345.387241,89.8281759 L333.733448,89.8281759 C332.051034,89.7953483 330.405552,89.3152448 328.973448,88.4289 C326.835552,86.8736931 324.939759,85.0066241 323.351724,82.8892448 C322.518724,81.5925552 322.091966,80.0824862 322.12069,78.5436931 L322.12069,54.4933828 C322.091966,52.9381759 322.518724,51.4116931 323.351724,50.1026931 C324.952069,47.9976241 326.843759,46.1305552 328.973448,44.5630379 C330.417862,43.7136241 332.059241,43.245831 333.733448,43.2089 L345.387241,43.2089 C347.061448,43.2663483 348.694621,43.7300379 350.147241,44.5630379 C352.244103,46.1428655 354.119379,47.9894172 355.727931,50.0616586 C356.573241,51.3624517 357.008207,52.8971414 356.958966,54.4523483 L356.958966,78.4575207 C357.024621,80.0291414 356.589655,81.5802448 355.727931,82.8892448 Z" id="Fill-8" fill="#101820" mask="url(#mask-2)"></path>
            <path d="M391.265434,78.6618724 L391.265434,73.2042862 C391.294159,73.0729759 391.294159,72.9334586 391.265434,72.7939414 C390.567848,71.6039414 389.127538,70.208769 388.434055,70.208769 L374.93371,70.208769 L374.93371,81.6984241 L388.434055,81.6984241 C389.127538,81.6984241 390.649917,80.3442862 391.179262,79.1953207 C391.2244,79.0640103 391.253124,78.9244931 391.265434,78.7849759 L391.265434,78.6618724 Z M391.265434,59.7039414 L391.265434,54.1642862 C391.281848,54.0411828 391.281848,53.9180793 391.265434,53.7949759 C390.567848,52.5680448 389.127538,51.0867 388.434055,51.0867 L374.93371,51.0867 L374.93371,62.7815276 L388.434055,62.7815276 C389.127538,62.7815276 390.649917,61.3863552 391.179262,60.2414931 C391.244917,60.0691483 391.273641,59.8885966 391.265434,59.7039414 Z M398.032021,83.5449759 C396.833814,85.0714586 395.455055,86.4502172 393.928572,87.6484241 C392.28309,88.727631 390.358572,89.3103207 388.393021,89.3349414 L366.849917,89.3349414 L366.849917,43.4994241 L388.434055,43.4994241 C390.411917,43.5240448 392.344641,44.1354586 393.969607,45.2598034 C395.479676,46.4785276 396.854331,47.8572862 398.073055,49.3632517 C398.955297,50.7912517 399.398469,52.4449414 399.349228,54.1273552 L399.349228,59.7860103 C399.427193,62.3465621 398.343883,64.808631 396.394745,66.474631 C398.35209,68.1037 399.439503,70.5411483 399.349228,73.0852862 L399.349228,78.7849759 C399.406676,80.4673897 398.951193,82.1333897 398.032021,83.5449759 Z" id="Fill-9" fill="#101820" mask="url(#mask-2)"></path>
            <polygon id="Fill-10" fill="#101820" mask="url(#mask-2)" points="410.221724 89.3731034 418.428621 89.3731034 418.428621 43.4965517 410.221724 43.4965517"></polygon>
            <polygon id="Fill-11" fill="#101820" mask="url(#mask-2)" points="454.047372 89.3735138 438.167028 58.9259276 438.167028 89.3735138 429.960131 89.3735138 429.960131 43.4969621 438.659441 43.4969621 454.375648 74.3548931 454.375648 43.4969621 462.582545 43.4969621 462.582545 89.3735138"></polygon>
            <path d="M505.913317,82.8896552 C504.3458,85.0275517 502.450007,86.8946207 500.291593,88.4293103 C498.838972,89.2664138 497.2058,89.7424138 495.531593,89.8244828 L482.195386,89.8244828 C478.137076,89.3361724 474.542455,86.9848966 472.474317,83.4641379 C471.944972,82.7091034 471.477179,81.9130345 471.075041,81.0841379 L478.666421,78.54 C479.630731,79.8613103 480.759179,81.0472069 482.035352,82.0689655 C482.207697,82.1058966 482.392352,82.1058966 482.5688,82.0689655 L495.162283,82.0689655 C495.310007,82.11 495.465938,82.11 495.613662,82.0689655 C496.766731,81.4534483 499.060559,79.1555172 499.060559,78.54 L499.060559,74.0262069 C499.064662,73.4435172 498.703559,72.9182759 498.1578,72.7131034 L478.215041,67.0093103 C474.612214,65.9136897 472.170662,62.5693793 472.224007,58.8024138 L472.224007,54.6989655 C472.187076,53.156069 472.58511,51.6336897 473.372972,50.3082759 C474.96511,48.1826897 476.877317,46.3156207 479.035731,44.7686207 C480.500662,43.9602414 482.125628,43.4965517 483.795731,43.4144828 L495.162283,43.4144828 C499.2288,43.8986897 502.839834,46.2499655 504.92849,49.7748276 C505.5358,50.6037241 506.044628,51.4982759 506.446766,52.442069 L498.691248,54.6989655 C497.767972,53.3530345 496.627214,52.1630345 495.326421,51.17 L494.879145,51.17 L484.041938,51.17 C483.894214,51.1289655 483.742386,51.1289655 483.594662,51.17 C482.359524,51.7444828 480.266766,53.9193103 480.266766,54.5348276 L480.266766,58.2689655 C480.246248,58.8475517 480.590938,59.3727931 481.12849,59.582069 L501.153317,65.4089655 C504.723317,66.5538276 507.144352,69.8694138 507.144352,73.6158621 L507.144352,78.457931 C507.21411,80.0295517 506.783248,81.5806552 505.913317,82.8896552" id="Fill-12" fill="#101820" mask="url(#mask-2)"></path>
            <path d="M523.88601,78.4575207 L523.88601,78.7447621 C524.796976,80.0660724 525.954148,81.1945207 527.291872,82.0685552 C527.410872,82.1054862 527.542183,82.1054862 527.661183,82.0685552 L538.699459,82.0685552 C538.838976,82.0972793 538.978493,82.0972793 539.109803,82.0685552 C540.488562,81.2109345 541.686769,80.0947966 542.638769,78.7857966 C542.66339,78.6914172 542.66339,78.5929345 542.638769,78.4985552 L542.638769,54.6985552 L542.638769,54.3292448 C541.73601,53.0120379 540.595252,51.8712793 539.273941,50.9644172 C539.142631,50.9315897 539.003114,50.9315897 538.863597,50.9644172 L527.825321,50.9644172 L527.45601,50.9644172 C526.114183,51.8548655 524.95701,52.9956241 524.050148,54.3292448 C524.037838,54.4523483 524.037838,54.5754517 524.050148,54.6985552 L523.88601,78.4575207 Z M549.413562,82.8892448 C547.813217,84.9820034 545.933838,86.8490724 543.828769,88.4289 C542.392562,89.298831 540.747079,89.7789345 539.068769,89.8281759 L527.414976,89.8281759 C525.732562,89.7953483 524.091183,89.3152448 522.654976,88.4289 C520.521183,86.8736931 518.62539,85.0066241 517.033252,82.8892448 C516.204355,81.5925552 515.773493,80.0824862 515.802217,78.5436931 L515.802217,54.4933828 C515.773493,52.9381759 516.204355,51.4116931 517.033252,50.1026931 C518.633597,47.9976241 520.52939,46.1305552 522.654976,44.5630379 C524.103493,43.7136241 525.740769,43.245831 527.414976,43.2089 L539.068769,43.2089 C540.742976,43.2663483 542.380252,43.7300379 543.828769,44.5630379 C545.925631,46.1428655 547.800907,47.9894172 549.413562,50.0616586 C550.258872,51.3624517 550.685631,52.8971414 550.644597,54.4523483 L550.644597,78.4575207 C550.706148,80.0291414 550.275286,81.5802448 549.413562,82.8892448 Z" id="Fill-13" fill="#101820" mask="url(#mask-2)"></path>
            <polygon id="Fill-14" fill="#101820" mask="url(#mask-2)" points="584.495993 89.3735138 568.615648 58.9259276 568.615648 89.3735138 560.408752 89.3735138 560.408752 43.4969621 569.108062 43.4969621 584.824269 74.3548931 584.824269 43.4969621 593.031166 43.4969621 593.031166 89.3735138"></polygon>
            <polygon id="Fill-15" fill="#00A3E0" mask="url(#mask-2)" points="42.2236621 31.6367655 54.6160759 24.4967655 54.6160759 54.2919034 57.4474552 55.9291793 60.2788345 54.2919034 60.2788345 24.4967655 72.6302138 31.6367655 75.5026276 26.7536621 57.4474552 16.3309034 39.3922828 26.7536621"></polygon>
            <polygon id="Fill-16" fill="#00A3E0" mask="url(#mask-2)" points="34.8784897 97.0875862 22.4860759 89.9065517 48.2967655 75.052069 48.2967655 71.7693103 45.4653862 70.127931 19.6546966 85.0234483 19.6546966 70.7024138 13.9919379 70.7024138 13.9919379 91.547931 32.0471103 101.97069"></polygon>
            <path d="M109.357717,96.4704276 L57.4490966,126.429703 L5.49944138,96.4704276 L5.49944138,36.5231517 L57.4490966,6.52694483 L109.357717,36.5231517 L109.357717,96.4704276 Z M57.4490966,-0.00164137931 L0.000820689655,33.2362897 L0.000820689655,99.7121517 L57.4490966,132.954186 L114.897372,99.7121517 L114.897372,33.2362897 L57.4490966,-0.00164137931 Z" id="Fill-17" fill="#00A3E0" mask="url(#mask-2)"></path>
            <polygon id="Fill-18" fill="#00A3E0" mask="url(#mask-2)" points="80.0164207 35.9043517 92.3678 43.0443517 57.4474552 63.1922828 22.4860759 43.0443517 34.8784897 35.9043517 32.0471103 30.9802138 13.9919379 41.4029724 13.9919379 62.2484897 19.6546966 62.2484897 19.6546966 47.9315586 54.6160759 68.1205241 54.6160759 108.457421 42.2236621 101.313317 39.3922828 106.241559 57.4474552 116.619179 75.5026276 106.241559 72.6302138 101.313317 60.2788345 108.457421 60.2788345 68.1205241 95.1991793 47.9315586 95.1991793 62.2484897 100.861938 62.2484897 100.861938 41.4029724 82.8478 30.9802138"></polygon>
            <polygon id="Fill-19" fill="#00A3E0" mask="url(#mask-2)" points="95.2 70.7036448 95.2 85.0205759 69.4303448 70.1250586 66.5989655 71.7705414 66.5989655 75.0533 92.3686207 89.9077828 80.0172414 97.0888172 82.8486207 101.971921 100.862759 91.5491621 100.862759 70.7036448"></polygon>
            <path d="M115.881379,111.613793 L115.142759,111.613793 L115.142759,107.838621 L113.624483,111.613793 L113.173103,111.613793 L111.777931,108.002759 L111.777931,111.613793 L111.03931,111.613793 L111.03931,107.1 L112.188276,107.1 L113.542414,110.546897 L114.855517,107.1 L115.881379,107.1 L115.881379,111.613793 Z M110.136552,107.879655 L108.741379,107.879655 L108.741379,111.613793 L107.961724,111.613793 L107.961724,107.715517 L106.566552,107.715517 L106.566552,107.1 L110.136552,107.1 L110.136552,107.879655 Z" id="Fill-20" fill="#00A3E0" mask="url(#mask-2)"></path>
        </g>
    </g>
</svg>